<svg width="18" height="18" viewBox="0 0 18 18" fill="none" xmlns="http://www.w3.org/2000/svg">
<rect width="18" height="18" fill="#E5E5E5"/>
<g id="desktop_index" clip-path="url(#clip0_4203_2)">
<rect width="1600" height="4772" transform="translate(-842 -3525)" fill="white"/>
<g id="Group 43">
<g id="Group 44">
<g id="Group 41">
<g id="Group 38" filter="url(#filter0_d_4203_2)">
<rect id="Rectangle 31" x="-350" y="-28" width="390" height="306" fill="white"/>
</g>
<path id="Vector" d="M11.2453 9L17.5302 2.71516C17.8285 2.41741 17.9962 2.01336 17.9966 1.59191C17.997 1.17045 17.8299 0.76611 17.5322 0.467833C17.2344 0.169555 16.8304 0.00177586 16.4089 0.00140366C15.9875 0.00103146 15.5831 0.168097 15.2848 0.465848L9 6.75069L2.71516 0.465848C2.41688 0.167571 2.01233 0 1.5905 0C1.16868 0 0.764125 0.167571 0.465848 0.465848C0.167571 0.764125 0 1.16868 0 1.5905C0 2.01233 0.167571 2.41688 0.465848 2.71516L6.75069 9L0.465848 15.2848C0.167571 15.5831 0 15.9877 0 16.4095C0 16.8313 0.167571 17.2359 0.465848 17.5342C0.764125 17.8324 1.16868 18 1.5905 18C2.01233 18 2.41688 17.8324 2.71516 17.5342L9 11.2493L15.2848 17.5342C15.5831 17.8324 15.9877 18 16.4095 18C16.8313 18 17.2359 17.8324 17.5342 17.5342C17.8324 17.2359 18 16.8313 18 16.4095C18 15.9877 17.8324 15.5831 17.5342 15.2848L11.2453 9Z" fill="#575757"/>
</g>
</g>
</g>
</g>
<defs>
<filter id="filter0_d_4203_2" x="-619" y="-33" width="700" height="354" filterUnits="userSpaceOnUse" color-interpolation-filters="sRGB">
<feFlood flood-opacity="0" result="BackgroundImageFix"/>
<feColorMatrix in="SourceAlpha" type="matrix" values="0 0 0 0 0 0 0 0 0 0 0 0 0 0 0 0 0 0 127 0" result="hardAlpha"/>
<feOffset dx="17" dy="19"/>
<feGaussianBlur stdDeviation="12"/>
<feColorMatrix type="matrix" values="0 0 0 0 0 0 0 0 0 0 0 0 0 0 0 0 0 0 0.13 0"/>
<feBlend mode="normal" in2="BackgroundImageFix" result="effect1_dropShadow_4203_2"/>
<feBlend mode="normal" in="SourceGraphic" in2="effect1_dropShadow_4203_2" result="shape"/>
</filter>
<clipPath id="clip0_4203_2">
<rect width="1600" height="4772" fill="white" transform="translate(-842 -3525)"/>
</clipPath>
</defs>
</svg>
